<svg width="29" height="29" viewBox="0 0 29 29" fill="none" xmlns="http://www.w3.org/2000/svg">
<path d="M27.5658 26.1946C25.737 22.9068 22.9188 20.5493 19.6299 19.4317C21.2568 18.4246 22.5207 16.89 23.2277 15.0635C23.9346 13.2371 24.0455 11.2198 23.5433 9.32149C23.0411 7.42318 21.9535 5.74878 20.4476 4.55545C18.9417 3.36211 17.1008 2.71582 15.2075 2.71582C13.3142 2.71582 11.4733 3.36211 9.96741 4.55545C8.46153 5.74878 7.37397 7.42318 6.87174 9.32149C6.36952 11.2198 6.4804 13.2371 7.18736 15.0635C7.89432 16.89 9.15827 18.4246 10.7851 19.4317C7.49621 20.548 4.67802 22.9056 2.84925 26.1946C2.78219 26.3083 2.73771 26.4349 2.71843 26.5667C2.69915 26.6986 2.70547 26.8332 2.73701 26.9625C2.76855 27.0918 2.82468 27.2132 2.90208 27.3196C2.97948 27.426 3.07658 27.5152 3.18766 27.5819C3.29874 27.6486 3.42154 27.6915 3.54883 27.7081C3.67611 27.7247 3.8053 27.7145 3.92877 27.6784C4.05223 27.6422 4.16748 27.5806 4.2677 27.4974C4.36793 27.4141 4.4511 27.3108 4.51231 27.1936C6.77455 23.1278 10.7731 20.7004 15.2075 20.7004C19.6419 20.7004 23.6405 23.1278 25.9027 27.1936C25.9639 27.3108 26.0471 27.4141 26.1473 27.4974C26.2476 27.5806 26.3628 27.6422 26.4863 27.6784C26.6097 27.7145 26.7389 27.7247 26.8662 27.7081C26.9935 27.6915 27.1163 27.6486 27.2274 27.5819C27.3385 27.5152 27.4356 27.426 27.513 27.3196C27.5904 27.2132 27.6465 27.0918 27.678 26.9625C27.7096 26.8332 27.7159 26.6986 27.6966 26.5667C27.6773 26.4349 27.6328 26.3083 27.5658 26.1946ZM8.48324 11.7098C8.48324 10.3268 8.87761 8.97481 9.61648 7.82488C10.3554 6.67494 11.4055 5.77867 12.6342 5.24941C13.863 4.72015 15.215 4.58167 16.5194 4.85149C17.8237 5.1213 19.0219 5.78729 19.9623 6.76523C20.9027 7.74317 21.5431 8.98915 21.8026 10.3456C22.0621 11.702 21.9289 13.108 21.4199 14.3858C20.911 15.6635 20.0491 16.7556 18.9433 17.524C17.8375 18.2924 16.5375 18.7025 15.2075 18.7025C13.4247 18.7005 11.7155 17.9631 10.4548 16.6522C9.19421 15.3412 8.48515 13.5638 8.48324 11.7098Z" fill="#FFFFE5"/>
</svg>
