<svg width="29" height="29" viewBox="0 0 29 29" fill="none" xmlns="http://www.w3.org/2000/svg">
<path d="M26.7572 5.4375H3.68029C3.42527 5.4375 3.1807 5.53298 3.00038 5.70293C2.82005 5.87289 2.71875 6.1034 2.71875 6.34375V21.75C2.71875 22.2307 2.92136 22.6917 3.28201 23.0316C3.64265 23.3715 4.1318 23.5625 4.64183 23.5625H25.7957C26.3057 23.5625 26.7948 23.3715 27.1555 23.0316C27.5161 22.6917 27.7187 22.2307 27.7187 21.75V6.34375C27.7187 6.1034 27.6174 5.87289 27.4371 5.70293C27.2568 5.53298 27.0122 5.4375 26.7572 5.4375ZM15.2187 15.0834L6.15264 7.25H24.2849L15.2187 15.0834ZM11.6983 14.5L4.64183 20.5957V8.40434L11.6983 14.5ZM13.1214 15.7291L14.5637 16.9809C14.7411 17.1343 14.9731 17.2195 15.2139 17.2195C15.4547 17.2195 15.6868 17.1343 15.8642 16.9809L17.3065 15.7291L24.2776 21.75H6.15264L13.1214 15.7291ZM18.7392 14.5L25.7957 8.4032V20.5968L18.7392 14.5Z" fill="#FFFFE5"/>
</svg>
