<svg width="29" height="29" viewBox="0 0 29 29" fill="none" xmlns="http://www.w3.org/2000/svg">
<path d="M12.4163 25.9583C12.4163 26.2346 12.3066 26.4996 12.1112 26.6949C11.9159 26.8903 11.651 27 11.3747 27H3.04163C2.76537 27 2.50043 26.8903 2.30509 26.6949C2.10974 26.4996 2 26.2346 2 25.9583V3.04167C2 2.7654 2.10974 2.50045 2.30509 2.3051C2.50043 2.10975 2.76537 2 3.04163 2H11.3747C11.651 2 11.9159 2.10975 12.1112 2.3051C12.3066 2.50045 12.4163 2.7654 12.4163 3.04167C12.4163 3.31793 12.3066 3.58289 12.1112 3.77824C11.9159 3.97359 11.651 4.08333 11.3747 4.08333H4.08327V24.9167H11.3747C11.651 24.9167 11.9159 25.0264 12.1112 25.2218C12.3066 25.4171 12.4163 25.6821 12.4163 25.9583ZM26.6945 13.763L21.4863 8.55469C21.2909 8.35923 21.0258 8.24942 20.7494 8.24942C20.473 8.24942 20.2079 8.35923 20.0124 8.55469C19.817 8.75015 19.7072 9.01525 19.7072 9.29167C19.7072 9.56809 19.817 9.83319 20.0124 10.0286L23.4433 13.4583H11.3747C11.0984 13.4583 10.8335 13.5681 10.6381 13.7634C10.4428 13.9588 10.3331 14.2237 10.3331 14.5C10.3331 14.7763 10.4428 15.0412 10.6381 15.2366C10.8335 15.4319 11.0984 15.5417 11.3747 15.5417H23.4433L20.0124 18.9714C19.817 19.1668 19.7072 19.4319 19.7072 19.7083C19.7072 19.9848 19.817 20.2499 20.0124 20.4453C20.2079 20.6408 20.473 20.7506 20.7494 20.7506C21.0258 20.7506 21.2909 20.6408 21.4863 20.4453L26.6945 15.237C26.7914 15.1402 26.8682 15.0254 26.9206 14.8989C26.973 14.7724 27 14.6369 27 14.5C27 14.3631 26.973 14.2276 26.9206 14.1011C26.8682 13.9746 26.7914 13.8598 26.6945 13.763Z" fill="#FFFFE5"/>
</svg>
