<svg width="25" height="31" viewBox="0 0 25 31" fill="none" xmlns="http://www.w3.org/2000/svg">
<path d="M2.08327 2.49942H2.03639V2.5463V28.0093V28.0561H2.08327H9.37469C9.63514 28.0561 9.88734 28.1825 10.075 28.4118C10.2628 28.6414 10.3695 28.9545 10.3695 29.2824C10.3695 29.6103 10.2628 29.9234 10.075 30.153C9.88734 30.3823 9.63514 30.5087 9.37469 30.5087H1.04163C0.78119 30.5087 0.528983 30.3823 0.341367 30.153C0.153537 29.9234 0.046875 29.6103 0.046875 29.2824V1.27315C0.046875 0.945215 0.153537 0.632157 0.341367 0.402579C0.528983 0.173263 0.78119 0.046875 1.04163 0.046875H9.37469C9.63514 0.046875 9.88734 0.173263 10.075 0.402579C10.2628 0.632157 10.3695 0.945215 10.3695 1.27315C10.3695 1.60108 10.2628 1.91414 10.075 2.14372C9.88734 2.37303 9.63514 2.49942 9.37469 2.49942H2.08327ZM24.6582 14.4067L24.6582 14.4067C24.7513 14.5203 24.8255 14.6557 24.8762 14.8053C24.9269 14.9549 24.9531 15.1155 24.9531 15.2778C24.9531 15.4401 24.9269 15.6007 24.8762 15.7503C24.8255 15.8999 24.7513 16.0352 24.6582 16.1488L24.6582 16.1488L19.4501 22.5146C19.2623 22.744 19.01 22.8705 18.7494 22.8705C18.4888 22.8705 18.2364 22.744 18.0487 22.5146C17.8608 22.2849 17.754 21.9716 17.754 21.6435C17.754 21.3154 17.8608 21.0022 18.0487 20.7725L21.4796 16.5806L21.5422 16.504H21.4433H9.37469C9.11425 16.504 8.86204 16.3777 8.67443 16.1483C8.4866 15.9188 8.37994 15.6057 8.37994 15.2778C8.37994 14.9498 8.4866 14.6368 8.67443 14.4072C8.86204 14.1779 9.11425 14.0515 9.37469 14.0515H21.4433H21.5422L21.4796 13.9749L18.0487 9.78311C17.8608 9.5534 17.754 9.24016 17.754 8.91204C17.754 8.58392 17.8608 8.27068 18.0487 8.04097C18.2364 7.81152 18.4888 7.68506 18.7494 7.68506C19.01 7.68506 19.2623 7.81152 19.4501 8.04097L24.6582 14.4067Z" fill="#004215" stroke="#004215" stroke-width="0.09375"/>
</svg>
